<svg xmlns="http://www.w3.org/2000/svg" version="1.1" xmlns:xlink="http://www.w3.org/1999/xlink" xmlns:svgjs="http://svgjs.dev/svgjs" width="1000" height="1000" viewBox="0 0 1000 1000"><rect width="1000" height="1000" fill="#ffffff"></rect><g transform="matrix(0.7,0,0,0.7,150,281.25)"><svg viewBox="0 0 512 320" data-background-color="#ffffff" preserveAspectRatio="xMidYMid meet" height="625" width="1000" xmlns="http://www.w3.org/2000/svg" xmlns:xlink="http://www.w3.org/1999/xlink"><g id="tight-bounds" transform="matrix(1,0,0,1,0,0)"><svg viewBox="0 0 512 320" height="320" width="512"><g><svg></svg></g><g><svg viewBox="0 0 512 320" height="320" width="512"><g><path xmlns="http://www.w3.org/2000/svg" d="M96 160c0-88.366 71.634-160 160-160 88.366 0 160 71.634 160 160 0 88.366-71.634 160-160 160-88.366 0-160-71.634-160-160zM256 313.678c84.874 0 153.678-68.804 153.678-153.678 0-84.874-68.804-153.678-153.678-153.678-84.874 0-153.678 68.804-153.678 153.678 0 84.874 68.804 153.678 153.678 153.678z" fill="#000000" fill-rule="nonzero" stroke="none" stroke-width="1" stroke-linecap="butt" stroke-linejoin="miter" stroke-miterlimit="10" stroke-dasharray="" stroke-dashoffset="0" font-family="none" font-weight="none" font-size="none" text-anchor="none" style="mix-blend-mode: normal" data-fill-palette-color="tertiary"></path></g><g transform="matrix(1,0,0,1,128,142.47313061770893)"><svg viewBox="0 0 256 35.05373876458214" height="35.05373876458214" width="256"><g><svg viewBox="0 0 256 35.05373876458214" height="35.05373876458214" width="256"><g><svg viewBox="0 0 256 35.05373876458214" height="35.05373876458214" width="256"><g id="textblocktransform"><svg viewBox="0 0 256 35.05373876458214" height="35.05373876458214" width="256" id="textblock"><g><svg viewBox="0 0 256 35.05373876458214" height="35.05373876458214" width="256"><g transform="matrix(1,0,0,1,0,0)"><svg width="256" viewBox="0 -35.79999923706055 261.42999267578125 35.79999923706055" height="35.05373876458214" data-palette-color="#61777f"><path d="M18.05-2.15L30.2-2.15 30.2 0 0 0 0-2.15 12.15-2.15 12.15-29.55 1.55-29.55 1.55-34.95 28.65-34.95 28.65-29.55 18.05-29.55 18.05-2.15ZM30.2-2.15L35.05-2.15 35.05-34.95 40.95-34.95 40.95-2.15 45.8-2.15 45.8 0 30.2 0 30.2-2.15ZM90.09-2.15L94.95-2.15 94.95 0 84.2 0 84.2-27.3 72-3.05 68.7-3.05 56.55-27.3 56.55 0 45.8 0 45.8-2.15 50.65-2.15 50.65-34.95 59.84-34.95 70.4-13 80.94-34.95 90.09-34.95 90.09-2.15ZM94.94-2.15L99.79-2.15 99.79-34.95 124.34-34.95 124.34-29.4 105.69-29.4 105.69-20.15 122.44-20.15 122.44-14.9 105.69-14.9 105.69-5.55 124.94-5.55 124.94-2.15 129.79-2.15 129.79 0 94.94 0 94.94-2.15ZM145.69-2.15L157.84-2.15 157.84 0 127.64 0 127.64-2.15 139.79-2.15 139.79-29.55 129.19-29.55 129.19-34.95 156.29-34.95 156.29-29.55 145.69-29.55 145.69-2.15ZM191.24-2.15L197.04-2.15 197.04 0 185.89 0 182.39-7.95 164.89-7.95 161.39 0 150.24 0 150.24-2.15 156.04-2.15 170.49-34.95 176.79-34.95 191.24-2.15ZM167.29-13.4L179.99-13.4 173.64-27.8 167.29-13.4ZM217.44-2.15L223.69-2.15 223.69 0 192.19 0 192.19-2.15 198.59-2.15Q196.19-3.4 194.19-5.25L194.19-5.25 197.89-9.7Q203.19-5.1 208.89-5.1L208.89-5.1Q211.74-5.1 213.41-6.33 215.09-7.55 215.09-9.58 215.09-11.6 213.51-12.73 211.94-13.85 208.09-14.78 204.24-15.7 202.24-16.48 200.24-17.25 198.69-18.5L198.69-18.5Q195.59-20.85 195.59-25.7 195.59-30.55 199.11-33.18 202.64-35.8 207.84-35.8L207.84-35.8Q211.19-35.8 214.49-34.7 217.79-33.6 220.19-31.6L220.19-31.6 217.04-27.15Q215.49-28.55 212.84-29.45 210.19-30.35 207.61-30.35 205.04-30.35 203.39-29.3 201.74-28.25 201.74-26.13 201.74-24 203.39-22.88 205.04-21.75 210.41-20.45 215.79-19.15 218.51-16.8 221.24-14.45 221.24-10.2L221.24-10.2Q221.24-5.05 217.44-2.15L217.44-2.15ZM223.68-2.15L228.53-2.15 228.53-34.95 234.43-34.95 234.43-17.9 250.43-34.95 257.93-34.95 243.88-19.65 256.58-2.1 256.58-2.15 261.43-2.15 261.43 0 251.13 0 239.53-15.3 234.43-9.8 234.43 0 223.68 0 223.68-2.15Z" opacity="1" transform="matrix(1,0,0,1,0,0)" fill="#000000" class="undefined-text-0" data-fill-palette-color="primary" id="text-0"></path></svg></g></svg></g></svg></g></svg></g><g></g></svg></g></svg></g></svg></g><defs></defs></svg><rect width="512" height="320" fill="none" stroke="none" visibility="hidden"></rect></g></svg></g></svg>